<svg width="46" height="59" viewBox="0 0 46 59" fill="none" xmlns="http://www.w3.org/2000/svg">
<path d="M22.8525 0.432617L22.5236 1.72577L22.7209 47.0395C22.8576 46.9675 23.0506 46.9357 23.2034 46.96C23.3562 46.9844 23.5091 47.0088 23.6619 47.0332L23.1589 1.67067L22.8525 0.432617Z" fill="#FF0000"/>
<path fill-rule="evenodd" clip-rule="evenodd" d="M23.8135 56.8213L23.7283 49.2033C24.1384 48.987 24.4196 48.5938 24.4354 48.0956C24.4752 47.4448 23.8958 46.9455 23.2444 46.9042C22.5929 46.8628 22.0946 47.4405 22.0548 48.0913C22.0391 48.5895 22.353 48.9838 22.7311 49.1693L22.7761 56.8435L23.0746 58.3306L23.5169 58.3073L23.8135 56.8213ZM23.479 49.1948C23.479 49.1948 23.5192 49.1386 23.5755 49.1789C23.5755 49.1789 23.5354 49.235 23.479 49.1948Z" fill="#FF0000"/>
</svg>
