<svg width="115" height="115" viewBox="0 0 115 115" fill="none" xmlns="http://www.w3.org/2000/svg">
<path d="M57.3517 114.726C89.0164 114.726 114.686 89.1229 114.686 57.5398C114.686 25.9567 89.0164 0.353516 57.3517 0.353516C25.6869 0.353516 0.0175781 25.9567 0.0175781 57.5398C0.0175781 89.1229 25.6869 114.726 57.3517 114.726Z" fill="url(#paint0_linear_5897_895)"/>
<path d="M57.3515 108.994C85.8421 108.994 108.938 85.957 108.938 57.5398C108.938 29.1226 85.8421 6.08594 57.3515 6.08594C28.8609 6.08594 5.76465 29.1226 5.76465 57.5398C5.76465 85.957 28.8609 108.994 57.3515 108.994Z" fill="url(#paint1_linear_5897_895)"/>
<path d="M57.3513 108.373C85.4978 108.373 108.315 85.6142 108.315 57.5403C108.315 29.4664 85.4978 6.70801 57.3513 6.70801C29.2049 6.70801 6.3877 29.4664 6.3877 57.5403C6.3877 85.6142 29.2049 108.373 57.3513 108.373Z" fill="url(#paint2_linear_5897_895)"/>
<path d="M57.4207 107.336C84.764 107.336 106.93 85.227 106.93 57.9542C106.93 30.6813 84.764 8.57227 57.4207 8.57227C30.0773 8.57227 7.91113 30.6813 7.91113 57.9542C7.91113 85.227 30.0773 107.336 57.4207 107.336Z" fill="url(#paint3_radial_5897_895)"/>
<path fill-rule="evenodd" clip-rule="evenodd" d="M57.3516 1.04395C73.0008 1.04395 87.1266 7.32891 97.3747 17.5506C107.623 27.7723 113.924 41.8617 113.924 57.4705C113.924 73.0793 107.623 87.1687 97.3747 97.3904C87.1266 107.612 73.0008 113.897 57.3516 113.897C41.7025 113.897 27.5767 107.612 17.3285 97.3904C7.08042 87.2378 0.709961 73.0794 0.709961 57.5396C0.709961 41.9308 7.08042 27.8414 17.3285 17.6197C27.5767 7.39798 41.7025 1.04395 57.3516 1.04395ZM95.6436 19.2773C85.8802 9.53901 72.3083 3.46124 57.3516 3.46124C42.3949 3.46124 28.8231 9.53901 19.0596 19.2773C9.22698 29.0846 3.1335 42.6214 3.1335 57.5396C3.1335 72.4578 9.22698 85.9946 18.9904 95.7329C28.8231 105.54 42.3949 111.549 57.3516 111.549C72.3083 111.549 85.8802 105.471 95.6436 95.7329C105.476 85.9946 111.501 72.4578 111.501 57.5396C111.501 42.6214 105.476 29.0846 95.6436 19.2773Z" fill="url(#paint4_radial_5897_895)"/>
<path fill-rule="evenodd" clip-rule="evenodd" d="M62.0602 9.46973L62.9604 9.53879L62.6834 12.1633C62.4064 12.0942 62.0602 12.0942 61.7832 12.0942L62.0602 9.46973Z" fill="black"/>
<path fill-rule="evenodd" clip-rule="evenodd" d="M85.5341 18.3105L86.2266 18.8631L84.7032 20.935C84.4955 20.7278 84.2185 20.5897 84.0107 20.3825L85.5341 18.3105Z" fill="black"/>
<path fill-rule="evenodd" clip-rule="evenodd" d="M101.391 37.7178L101.738 38.5466L99.3833 39.5825C99.2448 39.3063 99.1756 39.03 99.0371 38.7538L101.391 37.7178Z" fill="black"/>
<path fill-rule="evenodd" clip-rule="evenodd" d="M105.408 62.4433L105.338 63.3411L102.776 63.0648C102.846 62.7886 102.846 62.4433 102.846 62.167L105.408 62.4433Z" fill="black"/>
<path fill-rule="evenodd" clip-rule="evenodd" d="M96.5443 85.7867L95.9903 86.4774L93.8438 84.8889C94.0515 84.6817 94.19 84.4054 94.3977 84.1982L96.5443 85.7867Z" fill="black"/>
<path fill-rule="evenodd" clip-rule="evenodd" d="M77.0863 101.604L76.2554 101.949L75.1475 99.4625C75.4244 99.3244 75.7014 99.2553 75.9784 99.1172L77.0863 101.604Z" fill="black"/>
<path fill-rule="evenodd" clip-rule="evenodd" d="M52.366 105.609L51.4658 105.54L51.7428 102.777C52.0198 102.846 52.2967 102.846 52.643 102.846L52.366 105.609Z" fill="black"/>
<path fill-rule="evenodd" clip-rule="evenodd" d="M28.8926 96.7682L28.2002 96.2157L29.8621 93.9365C30.0698 94.1437 30.3468 94.2819 30.5545 94.4891L28.8926 96.7682Z" fill="black"/>
<path fill-rule="evenodd" clip-rule="evenodd" d="M13.0357 77.3613L12.6895 76.5325L15.2515 75.3584C15.39 75.6347 15.4592 75.9109 15.5977 76.1872L13.0357 77.3613Z" fill="black"/>
<path fill-rule="evenodd" clip-rule="evenodd" d="M9.01953 52.7045L9.08878 51.8066L11.9278 52.0829C11.8585 52.3592 11.8585 52.7045 11.8585 52.9808L9.01953 52.7045Z" fill="black"/>
<path fill-rule="evenodd" clip-rule="evenodd" d="M17.8828 29.2912L18.4368 28.6006L20.6526 30.2582C20.4448 30.4654 20.3064 30.7416 20.0986 30.9488L17.8828 29.2912Z" fill="black"/>
<path fill-rule="evenodd" clip-rule="evenodd" d="M37.3408 13.4752L38.1717 13.1299L39.2797 15.6162C39.0027 15.7544 38.7257 15.8234 38.4487 15.9616L37.3408 13.4752Z" fill="black"/>
<path fill-rule="evenodd" clip-rule="evenodd" d="M67.3928 10.2988L68.293 10.506L67.739 13.0615C67.4621 12.9924 67.1851 12.9233 66.8389 12.8543L67.3928 10.2988Z" fill="black"/>
<path fill-rule="evenodd" clip-rule="evenodd" d="M89.7584 21.6943L90.3816 22.3159L88.5812 24.2498C88.3735 24.0426 88.1657 23.8354 87.958 23.6282L89.7584 21.6943Z" fill="black"/>
<path fill-rule="evenodd" clip-rule="evenodd" d="M103.33 42.7598L103.607 43.5886L101.114 44.3483C101.045 44.072 100.975 43.7957 100.837 43.5195L103.33 42.7598Z" fill="black"/>
<path fill-rule="evenodd" clip-rule="evenodd" d="M104.576 67.7615L104.369 68.6594L101.807 68.1068C101.876 67.8306 101.945 67.5543 102.014 67.209L104.576 67.7615Z" fill="black"/>
<path fill-rule="evenodd" clip-rule="evenodd" d="M93.1509 90.0008L92.5277 90.6224L90.5889 88.8267C90.7966 88.6195 91.0043 88.4123 91.2121 88.2051L93.1509 90.0008Z" fill="black"/>
<path fill-rule="evenodd" clip-rule="evenodd" d="M72.032 103.538L71.201 103.814L70.3701 101.259C70.6471 101.19 70.9241 101.121 71.201 100.982L72.032 103.538Z" fill="black"/>
<path fill-rule="evenodd" clip-rule="evenodd" d="M47.0349 104.781L46.1348 104.573L46.758 101.88C47.0349 101.949 47.3119 102.018 47.6581 102.087L47.0349 104.781Z" fill="black"/>
<path fill-rule="evenodd" clip-rule="evenodd" d="M24.6691 93.385L24.0459 92.7634L25.9847 90.6914C26.1925 90.8986 26.4002 91.1058 26.6079 91.313L24.6691 93.385Z" fill="black"/>
<path fill-rule="evenodd" clip-rule="evenodd" d="M11.0973 72.389L10.8203 71.5602L13.5208 70.7314C13.5901 71.0077 13.6593 71.284 13.7978 71.5602L11.0973 72.389Z" fill="black"/>
<path fill-rule="evenodd" clip-rule="evenodd" d="M9.85059 47.3871L10.0583 46.4893L12.8281 47.1108C12.7588 47.3871 12.6896 47.6634 12.6203 48.0087L9.85059 47.3871Z" fill="black"/>
<path fill-rule="evenodd" clip-rule="evenodd" d="M21.2754 25.148L21.8986 24.5264L23.9759 26.3911C23.7682 26.5983 23.5604 26.8055 23.3527 27.0127L21.2754 25.148Z" fill="black"/>
<path fill-rule="evenodd" clip-rule="evenodd" d="M42.3955 11.5419L43.2264 11.2656L44.0574 13.8211C43.7804 13.8901 43.5034 13.9592 43.2264 14.0973L42.3955 11.5419Z" fill="black"/>
<path fill-rule="evenodd" clip-rule="evenodd" d="M72.1698 11.6113L73.0007 11.8876L72.1698 14.374C71.8928 14.3049 71.6158 14.1668 71.3389 14.0977L72.1698 11.6113Z" fill="black"/>
<path fill-rule="evenodd" clip-rule="evenodd" d="M93.2202 25.2168L93.8434 25.9075L91.9045 27.6341C91.6968 27.4269 91.4891 27.2197 91.3506 26.9434L93.2202 25.2168Z" fill="black"/>
<path fill-rule="evenodd" clip-rule="evenodd" d="M104.645 47.5254L104.853 48.4232L102.291 48.9758C102.221 48.6995 102.152 48.4232 102.083 48.0779L104.645 47.5254Z" fill="black"/>
<path fill-rule="evenodd" clip-rule="evenodd" d="M103.33 72.527L103.053 73.3558L100.561 72.527C100.63 72.2508 100.768 71.9745 100.838 71.6982L103.33 72.527Z" fill="black"/>
<path fill-rule="evenodd" clip-rule="evenodd" d="M89.6197 93.4543L88.9273 94.0759L87.127 92.073C87.3347 91.8658 87.5424 91.6586 87.8194 91.5205L89.6197 93.4543Z" fill="black"/>
<path fill-rule="evenodd" clip-rule="evenodd" d="M67.3233 104.85L66.4231 105.057L65.8691 102.363C66.1461 102.294 66.4231 102.225 66.7693 102.156L67.3233 104.85Z" fill="black"/>
<path fill-rule="evenodd" clip-rule="evenodd" d="M42.2567 103.537L41.4258 103.261L42.326 100.637C42.6029 100.706 42.8799 100.844 43.1569 100.913L42.2567 103.537Z" fill="black"/>
<path fill-rule="evenodd" clip-rule="evenodd" d="M21.2062 89.8621L20.583 89.1714L22.7296 87.3066C22.9373 87.5138 23.145 87.721 23.2835 87.9973L21.2062 89.8621Z" fill="black"/>
<path fill-rule="evenodd" clip-rule="evenodd" d="M9.85031 67.6232L9.64258 66.7254L12.4123 66.1729C12.4816 66.4491 12.5508 66.7254 12.6201 67.0707L9.85031 67.6232Z" fill="black"/>
<path fill-rule="evenodd" clip-rule="evenodd" d="M11.0967 42.6218L11.3737 41.793L14.0049 42.6908C13.9357 42.9671 13.7972 43.2433 13.728 43.5196L11.0967 42.6218Z" fill="black"/>
<path fill-rule="evenodd" clip-rule="evenodd" d="M24.8066 21.6255L25.4991 21.0039L27.3687 23.0759C27.1609 23.2831 26.9532 23.4903 26.6762 23.6975L24.8066 21.6255Z" fill="black"/>
<path fill-rule="evenodd" clip-rule="evenodd" d="M47.1729 10.299L48.073 10.0918L48.627 12.7163C48.35 12.7854 48.073 12.8544 47.7268 12.9235L47.1729 10.299Z" fill="black"/>
<path fill-rule="evenodd" clip-rule="evenodd" d="M76.6021 13.2686L77.4331 13.6139L76.3944 16.0312C76.1174 15.893 75.8405 15.7549 75.5635 15.6859L76.6021 13.2686Z" fill="black"/>
<path fill-rule="evenodd" clip-rule="evenodd" d="M96.1974 28.877L96.7514 29.5676L94.6741 31.0871C94.5356 30.8799 94.3278 30.6036 94.1201 30.3964L96.1974 28.877Z" fill="black"/>
<path fill-rule="evenodd" clip-rule="evenodd" d="M105.338 52.1523L105.408 53.0502L102.846 53.3265C102.846 53.0502 102.776 52.7049 102.776 52.4286L105.338 52.1523Z" fill="black"/>
<path fill-rule="evenodd" clip-rule="evenodd" d="M101.599 76.8778L101.253 77.7066L98.8291 76.6706C98.9676 76.3943 99.1061 76.1181 99.1753 75.8418L101.599 76.8778Z" fill="black"/>
<path fill-rule="evenodd" clip-rule="evenodd" d="M85.9501 96.4919L85.2576 97.0444L83.665 94.9034C83.8728 94.7652 84.1497 94.5581 84.3575 94.4199L85.9501 96.4919Z" fill="black"/>
<path fill-rule="evenodd" clip-rule="evenodd" d="M62.6147 105.609L61.7145 105.678L61.4375 102.984C61.7145 102.984 62.0607 102.915 62.3377 102.915L62.6147 105.609Z" fill="black"/>
<path fill-rule="evenodd" clip-rule="evenodd" d="M37.8251 101.81L36.9941 101.465L38.102 98.9092C38.379 99.0473 38.656 99.1854 38.933 99.2545L37.8251 101.81Z" fill="black"/>
<path fill-rule="evenodd" clip-rule="evenodd" d="M18.2288 86.2017L17.6748 85.5111L19.9599 83.8535C20.0983 84.0607 20.3061 84.337 20.4446 84.5442L18.2288 86.2017Z" fill="black"/>
<path fill-rule="evenodd" clip-rule="evenodd" d="M9.08878 62.9261L9.01953 62.0282L11.8585 61.752C11.8585 62.0282 11.9278 62.3735 11.9278 62.6498L9.08878 62.9261Z" fill="black"/>
<path fill-rule="evenodd" clip-rule="evenodd" d="M12.8281 38.2009L13.1743 37.3721L15.7364 38.4771C15.5979 38.7534 15.4594 39.0296 15.3902 39.3059L12.8281 38.2009Z" fill="black"/>
<path fill-rule="evenodd" clip-rule="evenodd" d="M28.4775 18.6551L29.17 18.1025L30.7626 20.3126C30.5549 20.4508 30.2779 20.658 30.0702 20.8652L28.4775 18.6551Z" fill="black"/>
<path fill-rule="evenodd" clip-rule="evenodd" d="M51.8125 9.53879L52.7127 9.46973L52.9896 12.1633C52.7127 12.1633 52.3664 12.2324 52.0895 12.2324L51.8125 9.53879Z" fill="black"/>
<path d="M58.5978 13.1996V9.05566H56.5205V13.1996C57.2129 13.1996 57.9054 13.1996 58.5978 13.1996Z" fill="#000003"/>
<path d="M36.1628 18.4488L34.0855 14.8574L32.2852 15.8934L34.3625 19.4848C34.9164 19.1395 35.5396 18.7942 36.1628 18.4488Z" fill="#000003"/>
<path d="M19.4754 34.2644L15.9439 32.1924L14.9053 33.9881L18.4367 36.0601C18.7829 35.4385 19.1292 34.8169 19.4754 34.2644Z" fill="#000003"/>
<path d="M12.8275 56.0889L8.67285 56.1579L8.7421 58.2299L12.8967 58.1608C12.8275 57.4702 12.8275 56.7795 12.8275 56.0889Z" fill="#000003"/>
<path d="M57.9748 101.811V105.954H55.8975V101.811C56.5899 101.811 57.2823 101.811 57.9748 101.811Z" fill="#000003"/>
<path d="M35.5398 96.5614L33.4625 100.153L31.6621 99.1168L33.7394 95.5254C34.3626 95.8707 34.9166 96.216 35.5398 96.5614Z" fill="#000003"/>
<path d="M19.198 80.6766L15.6666 82.7485L14.6279 80.9528L18.1594 78.8809C18.5056 79.5024 18.8518 80.124 19.198 80.6766Z" fill="#000003"/>
<path d="M78.332 96.7694L80.4094 100.361L82.2097 99.3248L80.1324 95.7334C79.5092 96.0787 78.886 96.4241 78.332 96.7694Z" fill="#000003"/>
<path d="M95.5742 34.6794L99.1057 32.6074L100.144 34.4031L96.6129 36.4751C96.2667 35.8535 95.9204 35.2319 95.5742 34.6794Z" fill="#000003"/>
<path d="M101.875 56.7803L106.03 56.8493L105.96 58.9213L101.806 58.8522C101.806 58.1616 101.806 57.4709 101.875 56.7803Z" fill="#000003"/>
<path d="M94.9512 80.8836L98.4826 82.9556L99.5213 81.1599L95.9898 79.0879C95.6436 79.7095 95.2974 80.262 94.9512 80.8836Z" fill="#000003"/>
<path d="M78.8867 18.7252L80.964 15.1338L82.7644 16.1698L80.6871 19.7612C80.0639 19.4159 79.5099 19.0705 78.8867 18.7252Z" fill="#000003"/>
<defs>
<linearGradient id="paint0_linear_5897_895" x1="95.6273" y1="137.714" x2="39.3521" y2="19.2606" gradientUnits="userSpaceOnUse">
<stop stop-color="#BABABA"/>
<stop offset="0.0945946" stop-color="#BFBFBF"/>
<stop offset="0.6189" stop-color="#F2F2F2"/>
</linearGradient>
<linearGradient id="paint1_linear_5897_895" x1="76.0549" y1="87.5619" x2="38.3221" y2="26.7075" gradientUnits="userSpaceOnUse">
<stop stop-color="white"/>
<stop offset="0.44" stop-color="#D0D1D1"/>
<stop offset="1" stop-color="white"/>
</linearGradient>
<linearGradient id="paint2_linear_5897_895" x1="93.7921" y1="108.617" x2="13.8468" y2="-3.99771" gradientUnits="userSpaceOnUse">
<stop stop-color="#F6F6F6"/>
<stop offset="0.44" stop-color="#EBEBEC"/>
<stop offset="1" stop-color="#BDBDBE"/>
</linearGradient>
<radialGradient id="paint3_radial_5897_895" cx="0" cy="0" r="1" gradientUnits="userSpaceOnUse" gradientTransform="translate(57.4409 57.9233) scale(50.252 50.1225)">
<stop stop-color="white"/>
<stop offset="0.88" stop-color="#FAFBFC"/>
<stop offset="0.97" stop-color="#D0D1D1"/>
<stop offset="1" stop-color="#646565"/>
</radialGradient>
<radialGradient id="paint4_radial_5897_895" cx="0" cy="0" r="1" gradientUnits="userSpaceOnUse" gradientTransform="translate(57.3306 57.5189) scale(56.6006 56.4547)">
<stop stop-color="#E5E3E4"/>
<stop offset="0.1189" stop-color="#F6F6F6"/>
<stop offset="0.5" stop-color="#E5E3E4"/>
<stop offset="0.8432" stop-color="#DBDAD9"/>
<stop offset="1" stop-color="white"/>
</radialGradient>
</defs>
</svg>
