<svg width="30" height="30" viewBox="0 0 30 30" fill="none" xmlns="http://www.w3.org/2000/svg">
<g clip-path="url(#clip0_2955_885)">
<path d="M0 15C0 6.71573 6.71573 0 15 0C23.2843 0 30 6.71573 30 15C30 23.2843 23.2843 30 15 30C6.71573 30 0 23.2843 0 15Z" fill="#E84C88"/>
<path d="M15 25C9.5082 25 5 20.5191 5 15C5 9.48087 9.5082 5 15 5C20.4918 5 25 9.5082 25 15C25 20.4918 20.5191 25 15 25ZM23.4426 16.3661C23.1421 16.2842 20.765 15.5738 18.1148 16.0109C19.2077 19.0984 19.6721 21.5574 19.7541 22.1038C21.694 20.765 23.0328 18.7432 23.4426 16.3661ZM18.3333 22.8689C18.1967 22.1038 17.7049 19.4809 16.5027 16.3661H16.4481C11.6667 18.0601 9.91803 21.3934 9.7541 21.694C11.2295 22.8142 13.0328 23.5246 15 23.5246C16.2022 23.5246 17.3224 23.306 18.3333 22.8689ZM8.6612 20.7377C8.82514 20.4372 11.2022 16.5301 15.6011 15.1093C15.7377 15.0546 15.8197 15.0273 15.9563 15.0273C15.7377 14.5355 15.5191 14.0437 15.2459 13.5519C10.9836 14.8361 6.85792 14.7814 6.44809 14.7541V15.0273C6.47541 17.2131 7.26776 19.2077 8.6612 20.7377ZM6.63934 13.2787C7.04918 13.2787 10.5464 13.2787 14.5355 12.2678C13.1148 9.72678 11.612 7.65027 11.3934 7.34973C8.96175 8.44262 7.18579 10.6011 6.63934 13.2787ZM13.0055 6.74863C13.224 7.04918 14.7814 9.18033 16.2022 11.7213C19.2077 10.5738 20.5191 8.87978 20.6831 8.6612C19.1803 7.3224 17.1858 6.53005 15.0546 6.53005C14.2896 6.47541 13.6339 6.55738 13.0055 6.74863ZM21.612 9.61749C21.4208 9.83607 20.0273 11.694 16.8579 13.0055C17.0492 13.4153 17.2678 13.7978 17.4317 14.235C17.4863 14.3716 17.5683 14.5355 17.623 14.6721C20.4645 14.3169 23.306 14.8907 23.5792 14.9454C23.5246 12.9235 22.8142 11.0929 21.612 9.61749Z" fill="white"/>
</g>
<defs>
<clipPath id="clip0_2955_885">
<rect width="30" height="30" fill="white"/>
</clipPath>
</defs>
</svg>
