<svg width="30" height="30" viewBox="0 0 30 30" fill="none" xmlns="http://www.w3.org/2000/svg">
<g clip-path="url(#clip0_2954_822)">
<path d="M15 30C23.2843 30 30 23.2843 30 15C30 6.71573 23.2843 0 15 0C6.71573 0 0 6.71573 0 15C0 23.2843 6.71573 30 15 30Z" fill="url(#paint0_linear_2954_822)"/>
<path d="M18.1867 6.66797H11.82C8.98001 6.66797 6.67334 8.97463 6.67334 11.8146V18.1813C6.67334 21.0213 8.98001 23.328 11.82 23.328H18.1867C21.0267 23.328 23.3333 21.0213 23.3333 18.1813V11.8146C23.3333 8.97463 21.0267 6.66797 18.1867 6.66797ZM21.4733 18.188C21.4733 20.0013 20 21.4813 18.18 21.4813H11.8133C10 21.4813 8.52001 20.008 8.52001 18.188V11.8213C8.52001 10.008 9.99334 8.52797 11.8133 8.52797H18.18C19.9933 8.52797 21.4733 10.0013 21.4733 11.8213V18.188Z" fill="white"/>
<path d="M15 10.7402C12.6533 10.7402 10.74 12.6536 10.74 15.0002C10.74 17.3469 12.6533 19.2602 15 19.2602C17.3467 19.2602 19.26 17.3469 19.26 15.0002C19.26 12.6536 17.3467 10.7402 15 10.7402ZM15 17.5869C13.5733 17.5869 12.4133 16.4269 12.4133 15.0002C12.4133 13.5736 13.5733 12.4136 15 12.4136C16.4267 12.4136 17.5867 13.5736 17.5867 15.0002C17.5867 16.4269 16.4267 17.5869 15 17.5869Z" fill="white"/>
<path d="M19.5849 11.2079C19.9774 11.144 20.2438 10.774 20.1798 10.3815C20.1159 9.98904 19.7459 9.72269 19.3535 9.78661C18.961 9.85053 18.6946 10.2205 18.7586 10.613C18.8225 11.0055 19.1925 11.2718 19.5849 11.2079Z" fill="white"/>
</g>
<defs>
<linearGradient id="paint0_linear_2954_822" x1="3.5786" y1="26.4214" x2="24.8953" y2="5.10473" gradientUnits="userSpaceOnUse">
<stop stop-color="#FEE411"/>
<stop offset="0.052" stop-color="#FEDB16"/>
<stop offset="0.138" stop-color="#FEC125"/>
<stop offset="0.248" stop-color="#FE983D"/>
<stop offset="0.376" stop-color="#FE5F5E"/>
<stop offset="0.5" stop-color="#FE2181"/>
<stop offset="1" stop-color="#9000DC"/>
</linearGradient>
<clipPath id="clip0_2954_822">
<rect width="30" height="30" fill="white"/>
</clipPath>
</defs>
</svg>
