<svg width="30" height="30" viewBox="0 0 30 30" fill="none" xmlns="http://www.w3.org/2000/svg">
<path d="M0 15C0 6.71573 6.71573 0 15 0C23.2843 0 30 6.71573 30 15C30 23.2843 23.2843 30 15 30C6.71573 30 0 23.2843 0 15Z" fill="url(#paint0_linear_7854_685)"/>
<g clip-path="url(#clip0_7854_685)">
<path d="M19.2522 13.375H24.16C24.6237 13.375 24.9995 13.7365 24.9995 14.1825V18.4822C24.9995 20.1213 23.6181 21.45 21.914 21.45H21.8994C20.1953 21.4502 18.8137 20.1217 18.8135 18.4826C18.8135 18.4825 18.8135 18.4824 18.8135 18.4822V13.797C18.8135 13.5639 19.0099 13.375 19.2522 13.375Z" fill="white"/>
<path d="M22.5694 12.5252C23.6676 12.5252 24.5578 11.6689 24.5578 10.6127C24.5578 9.55645 23.6676 8.7002 22.5694 8.7002C21.4713 8.7002 20.5811 9.55645 20.5811 10.6127C20.5811 11.6689 21.4713 12.5252 22.5694 12.5252Z" fill="white"/>
<path d="M16.3838 12.525C17.97 12.525 19.2559 11.2882 19.2559 9.7625C19.2559 8.23681 17.97 7 16.3838 7C14.7976 7 13.5117 8.23681 13.5117 9.7625C13.5117 11.2882 14.7976 12.525 16.3838 12.525Z" fill="white"/>
<path d="M20.2132 13.375H12.1121C11.6539 13.3859 11.2915 13.7516 11.3022 14.1923V19.0964C11.2382 21.7408 13.4133 23.9353 16.1626 24C18.9119 23.9353 21.0871 21.7408 21.0231 19.0964V14.1923C21.0337 13.7516 20.6713 13.3859 20.2132 13.375Z" fill="white"/>
<path opacity="0.1" d="M16.6043 13.375V20.2473C16.6021 20.5624 16.4036 20.8455 16.1006 20.9655C16.0041 21.0047 15.9005 21.025 15.7957 21.025H11.6908C11.6334 20.8848 11.5804 20.7445 11.5362 20.6C11.3815 20.1123 11.3026 19.6054 11.302 19.0955V14.191C11.2914 13.751 11.6532 13.3859 12.1106 13.375H16.6043Z" fill="black"/>
<path opacity="0.2" d="M16.1625 13.375V20.6722C16.1624 20.773 16.1414 20.8727 16.1006 20.9655C15.9759 21.2569 15.6815 21.4479 15.3539 21.45H11.8985C11.8234 21.3097 11.7527 21.1695 11.6908 21.025C11.629 20.8805 11.5804 20.7445 11.5362 20.6C11.3815 20.1123 11.3026 19.6054 11.302 19.0955V14.191C11.2914 13.751 11.6532 13.3859 12.1106 13.375H16.1625Z" fill="black"/>
<path opacity="0.2" d="M16.1625 13.375V19.8223C16.1591 20.2504 15.799 20.5968 15.3539 20.6H11.5362C11.3815 20.1123 11.3026 19.6054 11.302 19.0955V14.191C11.2914 13.751 11.6532 13.3859 12.1106 13.375H16.1625Z" fill="black"/>
<path opacity="0.2" d="M15.7206 13.375V19.8223C15.7172 20.2504 15.3572 20.5968 14.912 20.6H11.5362C11.3815 20.1123 11.3026 19.6054 11.302 19.0955V14.191C11.2914 13.751 11.6532 13.3859 12.1106 13.375H15.7206Z" fill="black"/>
<path opacity="0.1" d="M16.6043 11.1781V12.5169C16.5292 12.5211 16.4585 12.5254 16.3834 12.5254C16.3083 12.5254 16.2376 12.5211 16.1624 12.5169C16.0133 12.5074 15.8654 12.4846 15.7206 12.4489C14.8258 12.2451 14.0866 11.6415 13.7322 10.8254C13.6712 10.6883 13.6239 10.546 13.5908 10.4004H15.7957C16.2416 10.402 16.6026 10.7493 16.6043 11.1781Z" fill="black"/>
<path opacity="0.2" d="M16.1627 11.6029V12.5167C16.0135 12.5072 15.8656 12.4844 15.7208 12.4487C14.826 12.2449 14.0868 11.6413 13.7324 10.8252H15.354C15.7999 10.8268 16.161 11.1741 16.1627 11.6029Z" fill="black"/>
<path opacity="0.2" d="M16.1627 11.6029V12.5167C16.0135 12.5072 15.8656 12.4844 15.7208 12.4487C14.826 12.2449 14.0868 11.6413 13.7324 10.8252H15.354C15.7999 10.8268 16.161 11.1741 16.1627 11.6029Z" fill="black"/>
<path opacity="0.2" d="M15.7208 11.6029V12.4487C14.826 12.2449 14.0868 11.6413 13.7324 10.8252H14.9122C15.3581 10.8268 15.7191 11.1741 15.7208 11.6029Z" fill="black"/>
<path d="M6.80993 10.8252H14.911C15.3583 10.8252 15.7209 11.174 15.7209 11.6042V19.3962C15.7209 19.8264 15.3583 20.1752 14.911 20.1752H6.80993C6.36261 20.1752 6 19.8264 6 19.3962V11.6042C6 11.174 6.36262 10.8252 6.80993 10.8252Z" fill="white"/>
<path d="M12.9916 13.7906H11.3722V18.0321H10.3404V13.7906H8.72852V12.9678H12.9916V13.7906Z" fill="#545CC0"/>
</g>
<defs>
<linearGradient id="paint0_linear_7854_685" x1="5.21161" y1="-1.9531" x2="24.7884" y2="31.9531" gradientUnits="userSpaceOnUse">
<stop stop-color="#5A62C3"/>
<stop offset="0.5" stop-color="#4D55BD"/>
<stop offset="1" stop-color="#3940AB"/>
</linearGradient>
<clipPath id="clip0_7854_685">
<rect width="19" height="17" fill="white" transform="translate(6 7)"/>
</clipPath>
</defs>
</svg>
