<svg width="30" height="30" viewBox="0 0 30 30" fill="none" xmlns="http://www.w3.org/2000/svg">
<g clip-path="url(#clip0_2955_876)">
<path d="M0 15C0 6.71573 6.71573 0 15 0C23.2843 0 30 6.71573 30 15C30 23.2843 23.2843 30 15 30C6.71573 30 0 23.2843 0 15Z" fill="#14A800"/>
<path d="M21.0111 9.35623C18.6535 9.36784 16.8606 10.9576 16.1899 13.4905C15.0644 11.7248 14.1862 9.7053 13.6824 8L11.2005 8.01162L11.2313 14.7161C11.234 15.3535 10.9883 15.966 10.5481 16.4189C10.108 16.8717 9.50937 17.1279 8.88393 17.1312C8.25849 17.1339 7.65756 16.8835 7.21322 16.4349C6.76889 15.9863 6.51751 15.3762 6.51434 14.7387L6.483 8.03427L4 8.04589L4.03077 14.7504C4.04388 17.5325 6.22484 19.7373 8.89419 19.724C11.5635 19.7106 13.7257 17.4866 13.7132 14.7039L13.7075 13.5655C14.2078 14.5744 14.8336 15.6466 15.5214 16.5927L14.0038 24L16.5478 23.9884L17.642 18.6065C18.6376 19.2349 19.7505 19.6084 21.059 19.602C23.7899 19.5886 26.0142 17.3019 25.9999 14.392C25.9895 13.0513 25.4592 11.7692 24.5246 10.8256C23.5901 9.88206 22.3266 9.35419 21.0111 9.35623ZM21.0465 17.0098C20.0537 17.0144 19.0593 16.5765 18.2495 15.8841L18.4928 14.8717V14.8137C18.6752 13.7368 19.2234 11.9002 21.0858 11.8921C21.7425 11.891 22.373 12.1543 22.8401 12.6246C23.3073 13.095 23.5733 13.7344 23.5802 14.4036C23.5243 15.8586 22.3504 17.0034 21.0465 17.0098Z" fill="white"/>
</g>
<defs>
<clipPath id="clip0_2955_876">
<rect width="30" height="30" fill="white"/>
</clipPath>
</defs>
</svg>
