<svg width="30" height="30" viewBox="0 0 30 30" fill="none" xmlns="http://www.w3.org/2000/svg">
<g clip-path="url(#clip0_2955_910)">
<path d="M15 30C23.2843 30 30 23.2843 30 15C30 6.71573 23.2843 0 15 0C6.71573 0 0 6.71573 0 15C0 23.2843 6.71573 30 15 30Z" fill="#29A71A"/>
<path d="M21.6136 8.38606C20.053 6.80986 17.9805 5.84323 15.7699 5.66053C13.5594 5.47782 11.3563 6.09107 9.55806 7.38965C7.75983 8.68824 6.48484 10.5867 5.96306 12.7425C5.44128 14.8984 5.70707 17.1697 6.71248 19.1469L5.72554 23.9383C5.7153 23.986 5.71501 24.0353 5.72469 24.0831C5.73437 24.1309 5.75381 24.1762 5.78179 24.2162C5.82279 24.2768 5.88131 24.3235 5.94953 24.35C6.01775 24.3765 6.09244 24.3815 6.16361 24.3645L10.8596 23.2514C12.8312 24.2314 15.0865 24.48 17.2243 23.9532C19.362 23.4264 21.2435 22.1583 22.534 20.3744C23.8245 18.5906 24.4402 16.4067 24.2717 14.2115C24.1032 12.0163 23.1613 9.95202 21.6136 8.38606ZM20.1494 20.0724C19.0696 21.1492 17.6792 21.86 16.174 22.1046C14.6688 22.3492 13.1249 22.1154 11.7596 21.4361L11.1051 21.1122L8.22611 21.794L8.23464 21.7582L8.83123 18.8605L8.51077 18.2281C7.8132 16.8581 7.56713 15.3025 7.80779 13.7841C8.04846 12.2657 8.76352 10.8624 9.85055 9.77526C11.2164 8.40983 13.0687 7.64277 15 7.64277C16.9313 7.64277 18.7835 8.40983 20.1494 9.77526C20.161 9.7886 20.1736 9.80113 20.1869 9.81276C21.5358 11.1817 22.2889 13.0284 22.2819 14.9503C22.2748 16.8722 21.5083 18.7134 20.1494 20.0724Z" fill="white"/>
<path d="M19.8937 17.9466C19.5409 18.5023 18.9835 19.1824 18.2829 19.3512C17.0556 19.6478 15.1721 19.3614 12.8284 17.1762L12.7994 17.1506C10.7386 15.2398 10.2034 13.6495 10.3329 12.3881C10.4045 11.6722 11.0011 11.0245 11.5039 10.6018C11.5834 10.5339 11.6777 10.4856 11.7792 10.4607C11.8807 10.4358 11.9866 10.435 12.0885 10.4583C12.1904 10.4817 12.2854 10.5286 12.3659 10.5952C12.4464 10.6618 12.5102 10.7464 12.5522 10.8421L13.3107 12.5466C13.36 12.6572 13.3783 12.779 13.3636 12.8991C13.3489 13.0193 13.3017 13.1331 13.2272 13.2285L12.8437 13.7262C12.7614 13.829 12.7117 13.954 12.7011 14.0852C12.6905 14.2165 12.7194 14.3479 12.784 14.4626C12.9988 14.8393 13.5136 15.3932 14.0846 15.9063C14.7255 16.4858 15.4363 17.016 15.8863 17.1966C16.0067 17.2458 16.1391 17.2578 16.2664 17.2311C16.3937 17.2044 16.5101 17.1401 16.6005 17.0466L17.0454 16.5983C17.1312 16.5137 17.238 16.4533 17.3548 16.4234C17.4716 16.3934 17.5942 16.395 17.7102 16.4279L19.5119 16.9393C19.6113 16.9697 19.7024 17.0226 19.7782 17.0936C19.8541 17.1647 19.9126 17.2522 19.9495 17.3494C19.9863 17.4467 20.0005 17.551 19.9908 17.6545C19.9811 17.758 19.9479 17.8579 19.8937 17.9466Z" fill="white"/>
</g>
<defs>
<clipPath id="clip0_2955_910">
<rect width="30" height="30" fill="white"/>
</clipPath>
</defs>
</svg>
