<svg width="31" height="31" viewBox="0 0 31 31" fill="none" xmlns="http://www.w3.org/2000/svg">
<g clip-path="url(#clip0_5787_21)">
<mask id="mask0_5787_21" style="mask-type:luminance" maskUnits="userSpaceOnUse" x="0" y="0" width="31" height="31">
<path d="M30.5372 0.615234H0.659668V30.4928H30.5372V0.615234Z" fill="white"/>
</mask>
<g mask="url(#mask0_5787_21)">
<path d="M4.8544 10.3135C3.82525 10.3135 3.00635 11.1324 3.00635 12.1615V19.8595C3.00635 20.8886 3.82525 21.7075 4.8544 21.7075C5.88356 21.7075 6.70248 20.8886 6.70248 19.8595V12.1615C6.70248 11.1324 5.88356 10.3135 4.8544 10.3135ZM26.4086 10.3135C25.3795 10.3135 24.5605 11.1324 24.5605 12.1615V19.8595C24.5605 20.8886 25.3795 21.7075 26.4086 21.7075C27.4377 21.7075 28.2567 20.8886 28.2567 19.8595V12.1615C28.2567 11.1324 27.4377 10.3135 26.4086 10.3135Z" fill="white"/>
<path d="M12.5521 19.0986C11.523 19.0986 10.7041 19.9175 10.7041 20.9467V28.6447C10.7041 29.6737 11.523 30.4926 12.5521 30.4926C13.5813 30.4926 14.4002 29.6737 14.4002 28.6447V20.9467C14.4002 19.9175 13.5813 19.0986 12.5521 19.0986ZM18.7105 19.0986C17.6813 19.0986 16.8624 19.9175 16.8624 20.9467V28.6447C16.8624 29.6737 17.6813 30.4926 18.7105 30.4926C19.7396 30.4926 20.5585 29.6737 20.5585 28.6447V20.9467C20.5585 19.9175 19.7396 19.0986 18.7105 19.0986Z" fill="white"/>
<path d="M10.5151 0.615247C10.4714 0.615694 10.4307 0.626965 10.3906 0.649208C10.2588 0.722256 10.2155 0.873691 10.2887 1.00581L11.5905 3.35763C9.08585 4.66089 7.39401 7.13764 7.39062 9.98012H23.8731C23.8699 7.13764 22.178 4.66089 19.6734 3.35763L20.9752 1.00581C21.0484 0.873691 21.0051 0.722256 20.8733 0.649208C20.8332 0.626965 20.7924 0.615663 20.7488 0.615247C20.6553 0.614345 20.5666 0.661074 20.5167 0.751093L19.1979 3.12839C18.119 2.64984 16.909 2.38124 15.6319 2.38124C14.355 2.38124 13.1448 2.64984 12.066 3.12839L10.7471 0.751093C10.6972 0.661074 10.6086 0.61435 10.5151 0.615247ZM7.39062 10.631V22.5769C7.39062 23.6807 8.27926 24.5694 9.38304 24.5694H21.8808C22.9847 24.5694 23.8731 23.6807 23.8731 22.5769V10.631H7.39062Z" fill="white"/>
<path d="M11.8278 5.58789C11.4516 5.58789 11.1401 5.89935 11.1401 6.27561C11.1401 6.65188 11.4516 6.96336 11.8278 6.96336C12.2041 6.96336 12.5156 6.65188 12.5156 6.27561C12.5156 5.89935 12.2041 5.58789 11.8278 5.58789ZM19.4352 5.58789C19.0589 5.58789 18.7474 5.89935 18.7474 6.27561C18.7474 6.65188 19.0589 6.96336 19.4352 6.96336C19.8115 6.96336 20.1229 6.65188 20.1229 6.27561C20.1229 5.89935 19.8115 5.58789 19.4352 5.58789Z" fill="#EDA623"/>
</g>
</g>
<defs>
<clipPath id="clip0_5787_21">
<rect width="30.4873" height="30.4873" fill="white" transform="translate(0.35791 0.125)"/>
</clipPath>
</defs>
</svg>
