<svg width="25" height="31" viewBox="0 0 25 31" fill="none" xmlns="http://www.w3.org/2000/svg">
<path d="M8.23656 30.0142C6.47369 29.2523 4.82401 27.3156 4.82015 25.334C4.8154 23.1736 6.18458 21.3394 7.88743 20.1339C7.68276 20.9074 7.571 21.6148 8.07823 22.3066C8.54976 22.9498 9.37551 23.2624 10.1551 23.0927C11.9772 22.694 12.0607 20.6911 10.9806 19.5242C9.91266 18.3686 8.87953 17.0633 9.28603 15.3875C9.48958 14.5475 10.0054 13.7607 10.6588 13.1983C10.1566 14.5181 11.5837 15.8198 12.5242 16.4682C14.1554 17.5931 15.9451 18.4432 17.445 19.7619C19.0228 21.1477 20.1878 23.0218 19.9525 25.195C19.6975 27.5506 17.8256 29.189 15.7261 30.0162C20.1628 29.0368 24.7473 25.5934 24.8412 20.6726C24.919 16.6245 22.142 13.5091 18.7018 11.7253L18.5221 11.6273C18.6166 11.8564 18.6475 12.0514 18.6439 12.2257C18.6748 12.0971 18.6956 11.9649 18.7015 11.8285C18.7 11.9981 18.6784 12.1583 18.6385 12.3086L18.6439 12.2257C18.5922 12.4441 18.5055 12.6471 18.3892 12.8328L18.4398 12.7784C17.7534 13.9167 15.8954 14.164 14.9776 12.9852C13.502 11.0892 15.0085 9.04491 15.2191 7.03723C15.4831 4.52082 13.905 2.0781 11.9483 0.616211C13.0261 2.35948 11.6064 4.66582 10.4704 5.95508C9.36891 7.20511 8.02948 8.24864 6.81361 9.38429C5.50742 10.604 4.25174 11.8888 3.17821 13.3204C1.03113 16.1856 -0.283381 19.7893 0.682594 23.3641C1.64797 26.9362 4.74231 29.2101 8.23656 30.0142Z" fill="white"/>
</svg>
