<svg width="39" height="24" viewBox="0 0 39 24" fill="none" xmlns="http://www.w3.org/2000/svg">
<path d="M38.7384 22.4529C37.356 22.8044 36.5006 22.4683 35.7334 21.3162L30.2769 13.7671L29.4883 12.7219L23.1163 21.3412C22.3883 22.3782 21.6245 22.8294 20.2658 22.4624L28.4255 11.5093L20.8288 1.61562C22.1353 1.36146 23.0379 1.4909 23.8396 2.66081L29.4991 10.3038L35.2002 2.70237C35.9307 1.66552 36.7156 1.27119 38.0268 1.65362L35.0813 5.55884L31.0906 10.7551C30.6155 11.3489 30.6809 11.7552 31.118 12.3288L38.7384 22.4529ZM0.740947 11.3264L1.40844 8.04354C3.22565 1.54674 10.6726 -1.15294 15.8083 2.86154C18.8097 5.22272 19.5556 8.56258 19.4071 12.3039H2.48926C2.23509 19.0382 7.08216 23.1025 13.2618 21.029C15.4294 20.3008 16.7062 18.6035 17.3452 16.4799C17.6695 15.4157 18.2063 15.2494 19.2064 15.5535C18.6957 18.2092 17.5436 20.4279 15.1088 21.8162C11.4708 23.8947 6.27807 23.2225 3.54632 20.334C1.91916 18.6582 1.24691 16.5345 0.945234 14.2636C0.897726 13.8883 0.802708 13.5308 0.731445 13.1709C0.73778 12.5565 0.740947 11.942 0.740947 11.3276V11.3264ZM2.52015 10.8751H17.8084C17.7087 6.00542 14.6764 2.54679 10.5325 2.51709C5.98354 2.48147 2.71731 5.85814 2.52015 10.8751Z" fill="white"/>
</svg>
