<svg width="31" height="31" viewBox="0 0 31 31" fill="none" xmlns="http://www.w3.org/2000/svg">
<mask id="mask0_5789_1951" style="mask-type:luminance" maskUnits="userSpaceOnUse" x="0" y="0" width="31" height="31">
<path d="M30.6014 0.9375H0.601562V30.9375H30.6014V0.9375Z" fill="white"/>
</mask>
<g mask="url(#mask0_5789_1951)">
<path d="M10.5477 30.9375C13.3194 30.9375 15.5689 28.6976 15.5689 25.9376V20.9375H10.5477C7.77593 20.9375 5.52637 23.1776 5.52637 25.9376C5.52637 28.6976 7.77593 30.9375 10.5477 30.9375Z" fill="white"/>
<path d="M5.52637 15.9385C5.52637 13.1785 7.77593 10.9385 10.5477 10.9385H15.5689V20.9385H10.5477C7.77593 20.9385 5.52637 18.6985 5.52637 15.9385Z" fill="white"/>
<path d="M5.52637 5.9375C5.52637 3.17749 7.77593 0.9375 10.5477 0.9375H15.5689V10.9375H10.5477C7.77593 10.9375 5.52637 8.69749 5.52637 5.9375Z" fill="white"/>
<path opacity="0.9" d="M15.5703 0.9375H20.5916C23.3633 0.9375 25.6128 3.17749 25.6128 5.9375C25.6128 8.69749 23.3633 10.9375 20.5916 10.9375H15.5703V0.9375Z" fill="white"/>
<path opacity="0.6" d="M25.6128 15.9385C25.6128 18.6985 23.3633 20.9385 20.5916 20.9385C17.8198 20.9385 15.5703 18.6985 15.5703 15.9385C15.5703 13.1785 17.8198 10.9385 20.5916 10.9385C23.3633 10.9385 25.6128 13.1785 25.6128 15.9385Z" fill="white"/>
</g>
</svg>
