<svg width="31" height="26" viewBox="0 0 31 26" fill="none" xmlns="http://www.w3.org/2000/svg">
<path d="M0.844942 25.4376H6.32517C6.47144 25.4376 6.59986 25.3401 6.63906 25.199L8.23731 19.4373H14.4418L16.1758 25.2058C16.2172 25.3434 16.3439 25.4376 16.4877 25.4376H22.1758C22.1769 25.4376 22.1779 25.4376 22.1784 25.4376C22.3583 25.4376 22.5041 25.2919 22.5041 25.112C22.5041 25.0639 22.4939 25.0184 22.475 24.9773L15.238 1.63841C15.1958 1.50218 15.0696 1.40918 14.9269 1.40918H7.98997C7.8467 1.40918 7.72036 1.5027 7.67856 1.63959L0.533654 25.0168C0.503697 25.1155 0.521932 25.2227 0.583278 25.3057C0.644754 25.3886 0.741657 25.4376 0.844942 25.4376ZM13.486 14.8319H9.18224L10.454 10.286C10.6849 9.46689 10.9032 8.4976 11.1143 7.56021C11.1626 7.34491 11.2102 7.13365 11.2573 6.92708C11.5367 8.05007 11.844 9.26332 12.152 10.2894L13.486 14.8319Z" fill="white"/>
<path d="M24.9135 7.82617C24.7336 7.82617 24.5879 7.97192 24.5879 8.15179V25.1124C24.5879 25.2923 24.7336 25.438 24.9135 25.438H30.1855C30.3653 25.438 30.5111 25.2923 30.5111 25.1124V8.15179C30.5111 7.97192 30.3653 7.82617 30.1855 7.82617H24.9135Z" fill="white"/>
<path d="M27.5148 6.39551C29.3515 6.39551 30.6845 5.14996 30.6845 3.42653C30.6445 1.66664 29.3553 0.4375 27.5495 0.4375C26.6276 0.4375 25.809 0.755563 25.2445 1.33334C24.7148 1.87516 24.4325 2.62096 24.4489 3.43383C24.4321 4.22091 24.715 4.95328 25.2459 5.49693C25.8117 6.0764 26.6175 6.39551 27.5148 6.39551Z" fill="white"/>
</svg>
