<svg width="25" height="31" viewBox="0 0 25 31" fill="none" xmlns="http://www.w3.org/2000/svg">
<path d="M18.374 0.368164C18.4438 0.368164 18.5137 0.368164 18.5874 0.368164C18.7587 2.4838 17.9512 4.06461 16.9697 5.20937C16.0068 6.34623 14.6882 7.44886 12.5554 7.28156C12.4131 5.1962 13.222 3.73264 14.202 2.59051C15.111 1.5261 16.7774 0.578936 18.374 0.368164Z" fill="#FEFEFE"/>
<path d="M24.8307 22.389C24.8307 22.41 24.8307 22.4285 24.8307 22.4482C24.2313 24.2635 23.3764 25.8193 22.333 27.2631C21.3806 28.5739 20.2134 30.3378 18.1294 30.3378C16.3286 30.3378 15.1325 29.1799 13.2869 29.1482C11.3346 29.1166 10.261 30.1165 8.47596 30.3681C8.27179 30.3681 8.06763 30.3681 7.86738 30.3681C6.55659 30.1784 5.4988 29.1403 4.72816 28.205C2.45575 25.4412 0.699749 21.8713 0.373047 17.3027C0.373047 16.8548 0.373047 16.4082 0.373047 15.9604C0.511367 12.6908 2.10007 10.0324 4.21176 8.74402C5.32623 8.05898 6.85832 7.47542 8.56427 7.73622C9.29536 7.84955 10.0423 8.09984 10.697 8.34746C11.3175 8.5859 12.0934 9.00881 12.8284 8.98639C13.3264 8.97188 13.8217 8.71241 14.3236 8.52927C15.7938 7.99842 17.235 7.38977 19.1346 7.67566C21.4175 8.02078 23.0378 9.03517 24.039 10.6002C22.1078 11.8292 20.581 13.6814 20.8418 16.8443C21.0736 19.7174 22.744 21.3983 24.8307 22.389Z" fill="#FEFEFE"/>
</svg>
