<svg width="31" height="31" viewBox="0 0 31 31" fill="none" xmlns="http://www.w3.org/2000/svg">
<mask id="mask0_5787_790" style="mask-type:luminance" maskUnits="userSpaceOnUse" x="0" y="0" width="31" height="31">
<path d="M30.6016 0.368164H0.601562V30.3682H30.6016V0.368164Z" fill="white"/>
</mask>
<g mask="url(#mask0_5787_790)">
<path d="M11.5453 23.5599C11.5453 23.5599 10.3782 24.2254 12.3759 24.4504C14.7962 24.7213 16.033 24.6825 18.7001 24.1875C18.7001 24.1875 19.4014 24.6187 20.3806 24.9919C14.4017 27.5044 6.84915 24.8465 11.5453 23.5599ZM10.8147 20.2812C10.8147 20.2812 9.50563 21.2313 11.5049 21.4341C14.0902 21.6955 16.1318 21.717 19.6648 21.0499C19.6648 21.0499 20.1534 21.5357 20.9218 21.8014C13.693 23.874 5.64137 21.9647 10.8147 20.2812Z" fill="white"/>
<path d="M16.9733 14.719C18.4466 16.382 16.5863 17.8785 16.5863 17.8785C16.5863 17.8785 20.327 15.9852 18.609 13.6141C17.0046 11.4031 15.774 10.3044 22.4351 6.5166C22.4351 6.5166 11.9795 9.07705 16.9733 14.719Z" fill="white"/>
<path d="M24.8816 25.9848C24.8816 25.9848 25.7452 26.6825 23.9304 27.2223C20.4793 28.2474 9.56658 28.5571 6.53502 27.2632C5.44531 26.7984 7.48894 26.1534 8.13173 26.018C8.80207 25.8753 9.18526 25.902 9.18526 25.902C7.97334 25.0649 1.3519 27.5457 5.82192 28.256C18.0122 30.1944 28.0437 27.3832 24.8816 25.9848ZM12.1067 16.8841C12.1067 16.8841 6.55589 18.1768 10.1411 18.6461C11.6548 18.8449 14.6725 18.8 17.4834 18.569C19.7806 18.3791 22.0874 17.9751 22.0874 17.9751C22.0874 17.9751 21.2773 18.3152 20.6913 18.7075C15.0544 20.1612 4.16502 19.4849 7.29994 17.998C9.95116 16.7415 12.1067 16.8841 12.1067 16.8841ZM22.0644 22.3415C27.7946 19.4219 25.1452 16.6163 23.2959 16.9943C22.8427 17.0868 22.6407 17.1669 22.6407 17.1669C22.6407 17.1669 22.8088 16.9085 23.1303 16.7966C26.7886 15.5355 29.6022 20.516 21.9493 22.4885C21.9493 22.4885 22.0379 22.4109 22.0644 22.3415Z" fill="white"/>
<path d="M18.6079 0.400391C18.6079 0.400391 21.7814 3.51311 15.598 8.29929C10.6397 12.1388 14.4674 14.328 15.596 16.8291C12.7017 14.2687 10.5776 12.0148 12.0026 9.91695C14.0941 6.83749 19.8883 5.34459 18.6079 0.400391Z" fill="white"/>
<path d="M12.6695 30.2523C18.1697 30.5975 26.616 30.0607 26.8159 27.5088C26.8159 27.5088 26.4315 28.4763 22.2703 29.2445C17.5758 30.1107 11.7857 30.0097 8.35156 29.4545C8.35156 29.4545 9.05451 30.025 12.6695 30.2523Z" fill="white"/>
</g>
</svg>
