<svg width="35" height="35" viewBox="0 0 35 35" fill="none" xmlns="http://www.w3.org/2000/svg">
<path d="M6.85648 26.4929L1.80985 21.5948C1.11298 20.8782 0.71516 19.9231 0.697266 18.9237C0.697266 18.4733 0.949511 17.7706 1.14095 17.3674L6.47866 6.24609L6.85648 26.4929Z" fill="white"/>
<path opacity="0.7" d="M27.3864 7.35882L21.605 1.57743C21.1027 1.07068 20.0509 0.464844 19.1591 0.464844C18.3933 0.464844 17.6456 0.617994 17.1569 0.908528L6.48145 6.24624L27.3864 7.35882ZM14.488 34.2703H28.5012V28.266L18.1472 28.2637H8.48365L14.488 34.2703Z" fill="white"/>
<path opacity="0.87" d="M6.4834 24.2634C6.4834 26.0471 6.70637 26.4863 7.59373 27.3782L8.48335 28.2678H28.5009L18.7151 17.1487L6.4834 6.24805V24.2634Z" fill="white"/>
<path d="M24.2738 6.24639H6.48145L28.4989 28.2661H34.5033V14.4737L27.3864 7.35673C26.3886 6.3545 25.5013 6.24639 24.2738 6.24639Z" fill="white"/>
<path opacity="0.2" d="M7.81309 27.5992C6.92573 26.7051 6.70276 25.8267 6.70276 24.2659V6.47131L6.47754 6.24609V24.2637C6.48204 25.8267 6.48204 26.2591 7.81534 27.5992H7.81309Z" fill="white"/>
<path opacity="0.2" d="M34.2827 14.2552V28.0431H28.2783L28.5013 28.2661H34.5079V14.4782L34.2827 14.2552Z" fill="#263238"/>
<path opacity="0.2" d="M27.3864 7.35868C26.285 6.25511 25.3819 6.24609 24.0531 6.24609H6.48145L6.70667 6.47131H24.0553C24.7152 6.47131 26.3909 6.35871 27.3864 7.35868Z" fill="white"/>
</svg>
