<svg width="31" height="31" viewBox="0 0 31 31" fill="none" xmlns="http://www.w3.org/2000/svg">
<path d="M30.2832 7.03213C30.2927 7.07185 30.2983 7.1163 30.2983 7.15507V13.652C30.2983 13.8194 30.2094 13.9773 30.0619 14.0605L24.609 17.2031V23.4238C24.609 23.5912 24.5202 23.7492 24.3726 23.8324L12.9903 30.3832C12.9657 30.3983 12.9364 30.4078 12.9061 30.4172C12.8966 30.422 12.8862 30.4267 12.8768 30.4324C12.7983 30.4522 12.7141 30.4522 12.6356 30.4324C12.6205 30.4276 12.611 30.4229 12.6016 30.4172C12.5723 30.4078 12.5477 30.3974 12.5231 30.3832L1.14545 23.8324C0.99792 23.7482 0.904297 23.5912 0.904297 23.4238V3.93404C0.904297 3.89432 0.913754 3.84987 0.924156 3.8111C0.928885 3.79597 0.933613 3.78651 0.939288 3.77138C0.948744 3.74679 0.959147 3.7222 0.968604 3.69762C0.973332 3.68248 0.988464 3.67303 0.997921 3.6579C1.01305 3.63804 1.02724 3.61818 1.04237 3.59832C1.0575 3.58886 1.07168 3.57846 1.08682 3.56427C1.10668 3.54914 1.12086 3.53496 1.14072 3.52455L6.83001 0.248672C6.97754 0.164505 7.16006 0.164505 7.30286 0.248672L12.9969 3.52455C13.0167 3.53401 13.0309 3.54914 13.0461 3.56427C13.0612 3.57373 13.0801 3.58886 13.0952 3.59832C13.1104 3.61818 13.1198 3.63236 13.1349 3.6579C13.1444 3.66735 13.1595 3.68248 13.169 3.69762C13.1785 3.7222 13.1889 3.74679 13.1983 3.77138C13.203 3.78651 13.2134 3.79597 13.2134 3.8111C13.2286 3.85082 13.2333 3.88959 13.2333 3.93404V16.1051L17.9712 13.3768V7.15602C17.9712 7.11157 17.9807 7.07185 17.9911 7.03308C17.9958 7.01795 18.0005 7.00376 18.0062 6.99336C18.0157 6.96877 18.0261 6.94418 18.0355 6.91959C18.045 6.89973 18.0601 6.89028 18.0696 6.87515C18.0847 6.85529 18.0942 6.83543 18.1093 6.82124C18.1244 6.80706 18.1433 6.79665 18.1585 6.7872C18.1736 6.77206 18.1878 6.75788 18.2076 6.74748L23.9017 3.47159C24.0445 3.3827 24.227 3.3827 24.3745 3.47159L30.0638 6.74748C30.0837 6.75693 30.0979 6.77206 30.1177 6.7872C30.1328 6.79665 30.147 6.80706 30.1622 6.82124C30.1773 6.83543 30.1915 6.85529 30.2066 6.87515C30.2161 6.89028 30.2312 6.89973 30.2359 6.91959C30.2511 6.94418 30.2558 6.96877 30.2652 6.99336C30.2747 7.00281 30.2804 7.01795 30.2851 7.03308L30.2832 7.03213ZM29.347 13.3758V7.97782L27.3572 9.12022L24.609 10.7061V16.1042L29.347 13.3758ZM23.6634 23.1477V17.744L20.9539 19.2855L13.2305 23.699V29.1519L23.6634 23.1477ZM1.8481 4.75585V23.1477L12.28 29.1519V23.699L6.82717 20.6104C6.80732 20.6009 6.79313 20.5858 6.778 20.5707C6.76287 20.5612 6.74395 20.5508 6.73355 20.5366H6.72882C6.71369 20.5215 6.70423 20.5026 6.6891 20.4875C6.67965 20.4723 6.66451 20.4581 6.65506 20.4383C6.6456 20.4231 6.6352 20.3986 6.63047 20.3787C6.62101 20.3588 6.61061 20.3447 6.60588 20.3248C6.60115 20.3049 6.59643 20.2803 6.59643 20.2558C6.5917 20.2359 6.58697 20.2217 6.58697 20.2019V7.48417L3.83878 5.89824L1.8481 4.75585ZM7.06454 1.20477L2.32662 3.93309L7.06454 6.66142L11.8025 3.93309L7.06454 1.20477ZM9.53186 18.2377L12.28 16.6517V4.75679L10.2903 5.89919L7.53739 7.48512V19.38L9.53186 18.2377ZM24.1362 4.4258L19.3926 7.15412L24.1362 9.88245L28.8741 7.15412L24.1362 4.4258ZM23.6634 10.7061L18.9198 7.97782V13.3758L21.6679 14.9618L23.6624 16.1042L23.6634 10.7061ZM12.7538 22.8772L23.1811 16.9269L18.4479 14.1986L8.02537 20.1981L12.7538 22.8772Z" fill="white"/>
</svg>
