<svg width="23" height="30" viewBox="0 0 23 30" fill="none" xmlns="http://www.w3.org/2000/svg">
<path d="M9.94224 29.9799C7.13408 29.7775 4.35859 29.0707 2.6564 28.1244C1.68683 27.5854 0.948159 26.923 0.658299 26.3327L0.48584 25.9814V14.9637V3.94593L0.622306 3.66884C1.23215 2.43069 3.17844 1.3145 5.89535 0.644772C6.81762 0.417415 8.14903 0.191002 9.23522 0.0768308C10.3444 -0.0397835 13.2842 -0.0220415 14.3906 0.108116C17.3311 0.453587 19.8333 1.22701 21.3753 2.26711C21.97 2.66821 22.5802 3.31001 22.7869 3.75178L22.9642 4.13055L22.949 15.115L22.9338 26.0994L22.7915 26.3885C22.7133 26.5474 22.4769 26.8602 22.2663 27.0835C20.9841 28.4427 18.2338 29.4481 14.6263 29.8765C13.891 29.9639 10.6966 30.0343 9.94224 29.9799ZM15.1172 20.5392C15.1064 20.5111 14.6867 20.1371 14.1844 19.7081C13.6821 19.2792 13.2495 18.908 13.223 18.8834C13.1966 18.8587 13.2894 18.7715 13.4293 18.6895C13.5691 18.6075 13.8371 18.3794 14.0248 18.1827C14.5735 17.6072 14.8325 16.8964 14.8325 15.9653C14.8325 15.0487 14.5532 14.3091 13.9939 13.7445C13.4302 13.1755 12.7829 12.931 11.8404 12.931C10.3875 12.931 9.27166 13.7787 8.91552 15.1532C8.79301 15.6259 8.79366 16.5812 8.9168 17.0004C9.23798 18.0938 10.1127 18.888 11.2014 19.0744C11.5698 19.1375 11.6197 19.1647 11.8708 19.4393C12.0201 19.6025 12.3264 19.9283 12.5515 20.1632L12.9608 20.5904H14.0489C14.6473 20.5904 15.128 20.5674 15.1172 20.5392ZM11.3859 17.4927C11.1239 17.3561 11.0249 17.2502 10.8755 16.9465C10.7602 16.712 10.7404 16.5786 10.7391 16.0242C10.7379 15.4609 10.7558 15.3392 10.8762 15.0946C11.0733 14.6944 11.3449 14.5049 11.765 14.4745C12.3498 14.4321 12.6874 14.7191 12.8643 15.4089C13.0812 16.2545 12.8427 17.1536 12.3223 17.452C12.0492 17.6085 11.642 17.6263 11.3859 17.4927ZM6.56311 19.0624C7.70388 18.8461 8.35145 18.1827 8.35145 17.2303C8.35145 16.3855 7.93337 15.8932 6.77789 15.3773C6.11644 15.082 5.87686 14.8967 5.87686 14.6801C5.87686 14.5007 6.10422 14.304 6.36891 14.2546C6.62735 14.2063 7.3128 14.3254 7.71756 14.4889L8.05686 14.6259V13.8749V13.1238L7.68861 13.0421C7.46102 12.9917 6.98279 12.9614 6.43658 12.9629C5.66289 12.9629 5.5114 12.9818 5.22024 13.0974C4.36976 13.435 3.96618 14.0102 3.97264 14.8753C3.97868 15.6852 4.40595 16.1904 5.46932 16.6449C6.09674 16.9131 6.34822 17.1173 6.34822 17.3586C6.34822 17.8714 5.49381 17.9345 4.58921 17.4885C4.34147 17.3664 4.11889 17.2565 4.09459 17.2443C4.07029 17.2322 4.05041 17.583 4.05041 18.024C4.05041 18.8221 4.05126 18.826 4.19577 18.881C4.73996 19.0879 5.94274 19.1801 6.56311 19.0624ZM19.6049 18.322V17.6445H18.5738H17.5427V15.3172V12.9899H16.6295H15.7163V15.9947V18.9996H17.6606H19.6049V18.322ZM13.2417 6.44843C15.0564 6.32256 16.4168 6.08491 17.6139 5.68467C18.8064 5.28593 19.5109 4.80345 19.6685 4.27751C19.7292 4.07483 19.7248 3.99796 19.64 3.77574C19.2595 2.77953 17.1342 2.01413 13.8865 1.7038C12.4972 1.57103 9.97072 1.61407 8.64612 1.793C6.62496 2.06609 4.98468 2.57333 4.25535 3.15083C2.77999 4.31912 4.34019 5.60408 7.9685 6.20888C9.54171 6.47112 11.5799 6.56372 13.2417 6.44843Z" fill="white"/>
</svg>
