<svg width="31" height="30" viewBox="0 0 31 30" fill="none" xmlns="http://www.w3.org/2000/svg">
<path d="M14.7529 0.00709654C14.6884 0.0129608 14.4832 0.0334856 14.2984 0.0481462C10.0374 0.432254 6.0462 2.73104 3.51834 6.26424C2.11072 8.22876 1.21042 10.4572 0.870249 12.8175C0.750014 13.6415 0.735352 13.8848 0.735352 15.002C0.735352 16.1191 0.750014 16.3625 0.870249 17.1864C1.6855 22.819 5.6943 27.5514 11.1312 29.3048C12.1049 29.6186 13.1312 29.8326 14.2984 29.9616C14.7529 30.0115 16.7178 30.0115 17.1723 29.9616C19.187 29.7388 20.8937 29.2403 22.577 28.3812C22.8351 28.2493 22.8849 28.2141 22.8497 28.1848C22.8263 28.1672 21.7266 26.6923 20.4069 24.9096L18.0081 21.6696L15.0022 17.2216C13.3483 14.7762 11.9876 12.7765 11.9758 12.7765C11.9641 12.7735 11.9524 14.7498 11.9465 17.1629C11.9377 21.3881 11.9348 21.5582 11.882 21.6579C11.8057 21.8015 11.7471 21.8602 11.6239 21.9247C11.5301 21.9716 11.448 21.9804 11.0051 21.9804H10.4978L10.3629 21.8954C10.2749 21.8397 10.2104 21.7664 10.1664 21.6813L10.1049 21.5494L10.1107 15.6705L10.1195 9.78865L10.2104 9.6743C10.2573 9.61272 10.3571 9.53356 10.4274 9.49544C10.5477 9.4368 10.5946 9.43093 11.1019 9.43093C11.7002 9.43093 11.7999 9.45439 11.9553 9.62445C11.9993 9.67137 13.6268 12.1226 15.5741 15.0753C17.5213 18.0279 20.184 22.0596 21.4919 24.0388L23.8673 27.6365L23.9876 27.5573C25.0521 26.8653 26.1782 25.8801 27.0697 24.8539C28.967 22.6753 30.1899 20.0188 30.6005 17.1864C30.7207 16.3625 30.7354 16.1191 30.7354 15.002C30.7354 13.8848 30.7207 13.6415 30.6005 12.8175C29.7852 7.18493 25.7764 2.45248 20.3395 0.699077C19.3805 0.388272 18.36 0.174227 17.2163 0.0452141C16.9348 0.0158929 14.9963 -0.0163604 14.7529 0.00709654ZM20.8937 9.07908C21.0345 9.14945 21.1488 9.28433 21.1899 9.42507C21.2134 9.5013 21.2192 11.1316 21.2134 14.8055L21.2046 20.0775L20.2749 18.6525L19.3424 17.2274V13.3952C19.3424 10.9175 19.3541 9.52476 19.3717 9.45732C19.4186 9.29312 19.5213 9.16411 19.662 9.08787C19.7823 9.0263 19.8263 9.02044 20.2867 9.02044C20.7207 9.02044 20.7969 9.0263 20.8937 9.07908Z" fill="white"/>
</svg>
