<svg width="28" height="30" viewBox="0 0 28 30" fill="none" xmlns="http://www.w3.org/2000/svg">
<path d="M13.7346 -0.000976562C13.3303 -0.000976562 12.9371 0.0825432 12.589 0.279482L1.57606 6.63936C0.863376 7.05013 0.430176 7.82554 0.430176 8.65066V21.3473C0.430176 22.1718 0.863376 22.9462 1.57606 23.358L4.45214 25.0183C5.84956 25.707 6.36466 25.6962 7.00065 25.6962C9.06947 25.6962 10.2508 24.4408 10.2508 22.2592V9.72603C10.2508 9.54891 10.0974 9.42217 9.92352 9.42217H8.54398C8.36719 9.42217 8.21672 9.54891 8.21672 9.72603V22.2592C8.21672 23.2261 7.20928 24.1987 5.57463 23.3814L2.58155 21.6278C2.4756 21.5703 2.39436 21.4686 2.39436 21.3473V8.65034C2.39436 8.5301 2.47463 8.40758 2.58155 8.34648L13.5711 2.01033C13.6208 1.98132 13.6772 1.96603 13.7347 1.96603C13.7922 1.96603 13.8487 1.98132 13.8984 2.01033L24.8882 8.34681C24.9929 8.40985 25.0754 8.52652 25.0754 8.65099V21.3477C25.0754 21.4689 25.0143 21.593 24.9116 21.6515L13.8984 27.988C13.8041 28.0442 13.6741 28.0442 13.5711 27.988L10.7418 26.3046C10.6988 26.2812 10.6506 26.269 10.6016 26.269C10.5526 26.269 10.5044 26.2812 10.4614 26.3046C9.68043 26.7472 9.53354 26.7986 8.80103 27.0527C8.62067 27.1158 8.34672 27.2136 8.89463 27.5207L12.589 29.6948C12.9373 29.8958 13.3328 30.0007 13.7349 29.999C14.137 30.0015 14.5325 29.8966 14.8804 29.6951L25.8937 23.3583C26.6064 22.944 27.0393 22.1721 27.0393 21.3477V8.65066C27.0393 7.82586 26.6064 7.05176 25.8937 6.64001L14.8804 0.280132C14.5353 0.082869 14.1395 -0.00065176 13.7349 -0.00065176L13.7346 -0.000976562Z" fill="white"/>
<path d="M16.681 9.07129C13.5449 9.07129 11.6773 10.406 11.6773 12.6256C11.6773 15.0331 13.531 15.6947 16.5409 15.9924C20.1417 16.345 20.4222 16.8738 20.4222 17.5825C20.4222 18.8119 19.442 19.3361 17.1256 19.3361C14.2147 19.3361 13.5752 18.6095 13.361 17.1617C13.3357 17.0063 13.2157 16.8809 13.0568 16.8809H11.6305C11.455 16.8809 11.3032 17.0323 11.3032 17.2085C11.3032 19.0619 12.3113 21.2535 17.1256 21.2535C20.6104 21.2535 22.6204 19.8857 22.6204 17.4889C22.6204 15.1133 20.9967 14.4754 17.6163 14.0285C14.2008 13.5765 13.8751 13.3552 13.8751 12.5554C13.8751 11.895 14.1514 11.0117 16.681 11.0117C18.9409 11.0117 19.7761 11.4992 20.1183 13.0231C20.1482 13.166 20.2743 13.2801 20.4222 13.2801H21.8489C21.9366 13.2801 22.0217 13.2262 22.0825 13.1631C22.1423 13.0959 22.1846 13.0201 22.1761 12.9295C21.9551 10.3056 20.2054 9.07129 16.681 9.07129Z" fill="white"/>
</svg>
