<svg width="35" height="26" viewBox="0 0 35 26" fill="none" xmlns="http://www.w3.org/2000/svg">
<path d="M0.9375 24.6557V0.83107C0.9375 0.668998 1.00673 0.57639 1.16825 0.57639C1.56055 0.57639 1.92974 0.57639 2.4605 0.553248C3.01432 0.530107 3.5912 0.530107 4.21424 0.506926C4.83729 0.483783 5.5065 0.483783 6.22183 0.460641C6.93721 0.4375 7.62949 0.4375 8.32175 0.4375C10.214 0.4375 11.7831 0.668998 13.0753 1.15521C14.2292 1.54882 15.2906 2.19711 16.1675 3.0538C16.906 3.79469 17.4828 4.69766 17.852 5.69323C18.1981 6.66566 18.3827 7.66123 18.3827 8.70314C18.3827 10.6943 17.9212 12.3382 16.9982 13.6348C16.0752 14.9313 14.7829 15.9037 13.283 16.4594C11.7139 17.0382 9.98321 17.2467 8.09096 17.2467C7.53715 17.2467 7.16795 17.2467 6.93721 17.2235C6.70642 17.2002 6.38339 17.2002 5.94493 17.2002V24.6325C5.96803 24.7946 5.85264 24.9334 5.69112 24.9566C5.66801 24.9566 5.64495 24.9566 5.59879 24.9566H1.21441C1.02979 24.9566 0.9375 24.864 0.9375 24.6557ZM5.96802 5.04494V12.8244C6.29107 12.8476 6.59107 12.8707 6.86798 12.8707H8.09096C8.99092 12.8707 9.89088 12.7318 10.7447 12.4539C11.4831 12.2456 12.1293 11.8056 12.6369 11.2268C13.1215 10.648 13.3522 9.86078 13.3522 8.84206C13.3754 8.12431 13.1907 7.40655 12.8215 6.78145C12.4292 6.17945 11.8754 5.71637 11.2062 5.46169C10.3524 5.11441 9.42938 4.97547 8.48327 4.99866C7.88329 4.99866 7.35257 4.99866 6.91411 5.02181C6.45262 4.99866 6.12954 5.02181 5.96802 5.04494Z" fill="white"/>
<path d="M32.7876 11.4064C32.0953 11.0359 31.3568 10.7813 30.5723 10.6192C29.7186 10.434 28.8646 10.3182 27.9878 10.3182C27.5263 10.295 27.0417 10.3645 26.6033 10.4803C26.3033 10.5497 26.0495 10.7118 25.8879 10.9433C25.7726 11.1286 25.7034 11.3601 25.7034 11.5685C25.7034 11.7768 25.7957 11.9853 25.9341 12.1705C26.1418 12.4251 26.4186 12.6335 26.7187 12.7956C27.2494 13.0734 27.8033 13.3281 28.357 13.5597C29.6031 13.9764 30.8029 14.5552 31.9106 15.2498C32.6721 15.736 33.2951 16.3844 33.7339 17.1715C34.1029 17.9125 34.2877 18.7228 34.2643 19.5563C34.2877 20.6445 33.9645 21.7327 33.3643 22.6357C32.7184 23.5618 31.8184 24.2795 30.78 24.6963C29.6494 25.1825 28.2649 25.4372 26.6033 25.4372C25.5418 25.4372 24.5034 25.3445 23.4649 25.1362C22.6574 24.9973 21.8497 24.7426 21.1112 24.3952C20.9497 24.3026 20.8343 24.1406 20.8574 23.9554V19.9267C20.8574 19.8572 20.8805 19.7646 20.9497 19.7183C21.019 19.6721 21.0882 19.6952 21.1574 19.7415C22.0574 20.274 23.0035 20.6445 24.0188 20.876C24.8957 21.1076 25.8187 21.2233 26.7417 21.2233C27.6186 21.2233 28.2415 21.1076 28.657 20.8991C29.0263 20.7371 29.28 20.3434 29.28 19.9267C29.28 19.6026 29.0955 19.3016 28.7262 19.0007C28.357 18.6996 27.5955 18.3523 26.4648 17.9125C25.288 17.4957 24.2035 16.94 23.1881 16.2454C22.4727 15.736 21.8728 15.0646 21.4343 14.2774C21.0652 13.5365 20.8805 12.7261 20.9036 11.9158C20.9036 10.9202 21.1804 9.97091 21.6882 9.11426C22.2651 8.18812 23.1188 7.44722 24.1111 6.98418C25.1957 6.4285 26.5572 6.17383 28.1957 6.17383C29.1415 6.17383 30.1107 6.24325 31.0569 6.38218C31.7492 6.47479 32.4185 6.66005 33.0416 6.91472C33.1337 6.93786 33.2259 7.03047 33.2722 7.12308C33.2951 7.21568 33.3185 7.30828 33.3185 7.40093V11.1749C33.3185 11.2675 33.2722 11.3601 33.2029 11.4064C32.9953 11.4527 32.8798 11.4527 32.7876 11.4064Z" fill="white"/>
</svg>
