<svg width="30" height="30" viewBox="0 0 30 30" fill="none" xmlns="http://www.w3.org/2000/svg">
<path fill-rule="evenodd" clip-rule="evenodd" d="M29.4805 15.2539C29.4805 23.3975 22.8789 29.999 14.7354 29.999C6.59183 29.999 -0.00976562 23.3975 -0.00976562 15.2539C-0.00976562 7.11042 6.59183 0.508789 14.7354 0.508789C22.8789 0.508789 29.4805 7.11042 29.4805 15.2539ZM14.861 8.93481H13.0915L11.2451 18.9288H13.0146L14.066 13.208L15.4893 13.2219C15.9424 13.2219 16.2373 13.3194 16.374 13.5142C16.5107 13.709 16.5363 14.0384 16.4509 14.5025L15.6303 18.9288H17.4255L18.2846 14.2937C18.4641 13.2545 18.3358 12.5491 17.8998 12.178C17.4723 11.8068 16.8228 11.612 15.9508 11.5934H14.3609L14.861 8.93481ZM4.98296 11.5938H8.41929C9.42792 11.6029 10.1588 11.9186 10.6119 12.5402C11.065 13.1619 11.2146 14.0109 11.0607 15.0874C11.001 15.5794 10.8684 16.0617 10.6632 16.5351C10.4666 17.0083 10.1932 17.4351 9.84263 17.8156C9.41513 18.298 8.95781 18.6042 8.47065 18.7343C7.98342 18.8643 7.479 18.9291 6.9576 18.9291H5.41898L4.93167 21.5738H3.14941L4.98296 11.5938ZM5.71384 17.3563L6.48061 13.1944H6.73967C6.83372 13.1944 6.93196 13.1897 7.03453 13.1805C7.71846 13.1713 8.28674 13.2409 8.73995 13.3893C9.20146 13.5377 9.35532 14.0992 9.20146 15.0735C9.01358 16.2335 8.64575 16.9109 8.09878 17.1057C7.55182 17.2914 6.86788 17.3794 6.04721 17.3702H5.86771C5.81642 17.3702 5.76513 17.3655 5.71384 17.3563ZM20.1861 11.5938H23.6224C24.6311 11.6029 25.3619 11.9186 25.8151 12.5402C26.2683 13.1619 26.4177 14.0109 26.2638 15.0874C26.2041 15.5794 26.0715 16.0617 25.8664 16.5351C25.6697 17.0083 25.3963 17.4351 25.0458 17.8156C24.6183 18.298 24.1611 18.6042 23.6737 18.7343C23.1866 18.8643 22.6821 18.9291 22.1608 18.9291H20.6221L20.1348 21.5738H18.3525L20.1861 11.5938ZM20.9171 17.3563L21.6838 13.1944H21.9428C22.0369 13.1944 22.1351 13.1897 22.2377 13.1805C22.9217 13.1713 23.49 13.2409 23.9431 13.3893C24.4047 13.5377 24.5585 14.0992 24.4047 15.0735C24.2166 16.2335 23.8489 16.9109 23.3019 17.1057C22.7549 17.2914 22.071 17.3794 21.2504 17.3702H21.0709C21.0196 17.3702 20.9683 17.3655 20.9171 17.3563Z" fill="white"/>
</svg>
