<svg width="36" height="32" viewBox="0 0 36 32" fill="none" xmlns="http://www.w3.org/2000/svg">
<path d="M17.7365 19.0726C19.4342 19.0726 20.8104 17.6964 20.8104 15.9987C20.8104 14.301 19.4342 12.9248 17.7365 12.9248C16.0388 12.9248 14.6626 14.301 14.6626 15.9987C14.6626 17.6964 16.0388 19.0726 17.7365 19.0726Z" fill="white" stroke="white" stroke-width="0.894845"/>
<path fill-rule="evenodd" clip-rule="evenodd" d="M2.78589 13.8222C1.99691 14.5345 1.61159 15.2708 1.61159 15.9993C1.61159 16.7279 1.99691 17.4642 2.78589 18.1765C3.57481 18.8887 4.73718 19.5469 6.20495 20.1073C9.13792 21.2272 13.2148 21.9276 17.7364 21.9276C22.2579 21.9276 26.3347 21.2272 29.2679 20.1073C30.7355 19.5469 31.8979 18.8887 32.6869 18.1765C33.4759 17.4642 33.861 16.7279 33.861 15.9993C33.861 15.2708 33.4759 14.5345 32.6869 13.8222C31.8979 13.11 30.7355 12.4517 29.2679 11.8914C26.3347 10.7715 22.2579 10.071 17.7364 10.071C13.2148 10.071 9.13792 10.7715 6.20495 11.8914C4.73718 12.4517 3.57481 13.11 2.78589 13.8222ZM5.94134 11.2009C8.97812 10.0414 13.1484 9.33203 17.7364 9.33203C22.3244 9.33203 26.4946 10.0414 29.5313 11.2009C31.0484 11.7802 32.3017 12.4789 33.182 13.2736C34.0625 14.0684 34.6001 14.9888 34.6001 15.9993C34.6001 17.0099 34.0625 17.9303 33.182 18.725C32.3017 19.5198 31.0484 20.2185 29.5313 20.7978C26.4946 21.9573 22.3244 22.6667 17.7364 22.6667C13.1484 22.6667 8.97812 21.9573 5.94134 20.7978C4.42424 20.2185 3.17105 19.5198 2.29067 18.725C1.41034 17.9303 0.872559 17.0099 0.872559 15.9993C0.872559 14.9888 1.41034 14.0684 2.29067 13.2736C3.17105 12.4789 4.42424 11.7802 5.94134 11.2009Z" fill="white" stroke="white" stroke-width="0.894845"/>
<path fill-rule="evenodd" clip-rule="evenodd" d="M12.1473 1.96298C11.136 1.63583 10.3056 1.6703 9.6747 2.03457C9.04376 2.39885 8.59872 3.10071 8.37637 4.1401C8.15409 5.17941 8.16515 6.51518 8.41369 8.06659C8.91037 11.1665 10.3422 15.0474 12.6031 18.9632C14.8638 22.8789 17.5088 26.0595 19.9451 28.0396C21.1643 29.0303 22.3157 29.7079 23.3269 30.0352C24.3382 30.3621 25.1685 30.3278 25.7994 29.9634C26.4305 29.5992 26.8753 28.8974 27.0978 27.8579C27.32 26.8186 27.309 25.4829 27.0604 23.9316C26.5638 20.8316 25.1319 16.9507 22.8712 13.0349C20.6104 9.11908 17.9654 5.9386 15.529 3.95852C14.3098 2.96762 13.1585 2.29014 12.1473 1.96298ZM15.9951 3.38503C18.5176 5.43519 21.2172 8.69203 23.5112 12.6653C25.8053 16.6387 27.2759 20.605 27.7902 23.8147C28.047 25.4181 28.0685 26.8526 27.8205 28.0125C27.5724 29.1723 27.0442 30.0982 26.1689 30.6035C25.2938 31.1088 24.2278 31.1032 23.0994 30.7383C21.9709 30.3732 20.7392 29.6372 19.479 28.6132C16.9565 26.5628 14.257 23.306 11.963 19.3327C9.66896 15.3594 8.19826 11.3931 7.68399 8.1835C7.42709 6.57997 7.40567 5.1453 7.65373 3.98552C7.90181 2.82578 8.43001 1.89984 9.30519 1.39457C10.1803 0.889301 11.2464 0.894784 12.3747 1.25983C13.5032 1.62489 14.7349 2.36079 15.9951 3.38503Z" fill="white" stroke="white" stroke-width="0.894845"/>
<path fill-rule="evenodd" clip-rule="evenodd" d="M27.0978 4.14009C26.8753 3.1007 26.4305 2.39886 25.7996 2.03456C25.1685 1.67029 24.3381 1.63582 23.3269 1.96299C22.3156 2.29013 21.1643 2.9676 19.9451 3.95853C17.5088 5.93868 14.8638 9.11908 12.6031 13.0348C10.3422 16.9507 8.91037 20.8315 8.41369 23.9315C8.16515 25.4829 8.15409 26.8186 8.37645 27.8579C8.59872 28.8973 9.04376 29.5992 9.6747 29.9634C10.3056 30.3277 11.1359 30.3623 12.1473 30.0351C13.1585 29.7078 14.3098 29.0306 15.529 28.0396C17.9653 26.0595 20.6104 22.8789 22.8711 18.9632C25.1319 15.0474 26.5638 11.1665 27.0604 8.06651C27.3089 6.51518 27.32 5.17942 27.0978 4.14009ZM27.7902 8.18342C27.2759 11.3931 25.8052 15.3594 23.5112 19.3327C21.2172 23.306 18.5176 26.5628 15.9951 28.6131C14.7349 29.6372 13.5032 30.3731 12.3747 30.7383C11.2463 31.1032 10.1803 31.1088 9.30519 30.6035C8.43001 30.0981 7.90181 29.1722 7.65373 28.0125C7.40566 26.8526 7.4271 25.4181 7.68399 23.8147C8.19826 20.6049 9.66904 16.6387 11.963 12.6653C14.257 8.69203 16.9565 5.43517 19.479 3.38502C20.7392 2.3608 21.971 1.62491 23.0994 1.25983C24.2278 0.894799 25.2938 0.889284 26.1689 1.39455C27.0442 1.89982 27.5724 2.82576 27.8205 3.98551C28.0685 5.14531 28.047 6.57997 27.7902 8.18342Z" fill="white" stroke="white" stroke-width="0.894845"/>
</svg>
