<svg width="27" height="31" viewBox="0 0 27 31" fill="none" xmlns="http://www.w3.org/2000/svg">
<path d="M23.4412 6.51516C23.4205 6.36516 23.2891 6.28215 23.1805 6.27301C23.0721 6.26397 20.7782 6.09393 20.7782 6.09393C20.7782 6.09393 19.185 4.51225 19.0101 4.33718C18.8351 4.16222 18.4934 4.21544 18.3608 4.25448C18.3413 4.26023 18.0127 4.36164 17.4692 4.52982C16.937 2.99838 15.9978 1.59105 14.3454 1.59105C14.2998 1.59105 14.2528 1.5929 14.2059 1.59557C13.736 0.974102 13.1538 0.704102 12.651 0.704102C8.80188 0.704102 6.96295 5.51592 6.38637 7.96112C4.89069 8.42458 3.82815 8.75407 3.69243 8.7967C2.85757 9.05859 2.83117 9.08489 2.72154 9.87157C2.63904 10.4671 0.45459 27.3605 0.45459 27.3605L17.4763 30.5498L26.6992 28.5546C26.6992 28.5546 23.4615 6.66516 23.4412 6.51516ZM16.5284 4.82078L15.0881 5.26657C15.0886 5.16506 15.0891 5.0652 15.0891 4.95599C15.0891 4.0042 14.957 3.23787 14.7451 2.63037C15.5965 2.73722 16.1635 3.70595 16.5284 4.82078ZM13.6889 2.8191C13.9256 3.41222 14.0795 4.26342 14.0795 5.41205C14.0795 5.47081 14.079 5.52455 14.0785 5.5789C13.1418 5.86903 12.124 6.18403 11.1039 6.50006C11.6766 4.28951 12.7503 3.22184 13.6889 2.8191ZM12.5453 1.73653C12.7114 1.73653 12.8788 1.79294 13.039 1.90318C11.8054 2.48366 10.4831 3.94564 9.92473 6.8652L7.57343 7.59342C8.22747 5.36653 9.78058 1.73653 12.5453 1.73653Z" fill="white"/>
<path d="M23.1809 6.27334C23.0725 6.2643 20.7786 6.09427 20.7786 6.09427C20.7786 6.09427 19.1854 4.51259 19.0105 4.33752C18.9451 4.27238 18.8568 4.23899 18.7646 4.22461L17.4775 30.5499L26.6997 28.5549C26.6997 28.5549 23.4619 6.6655 23.4416 6.5155C23.4209 6.3655 23.2895 6.28249 23.1809 6.27334Z" fill="#EBEBEB"/>
<path d="M14.3456 11.3695L13.2084 14.7523C13.2084 14.7523 12.212 14.2205 10.9907 14.2205C9.20013 14.2205 9.11002 15.3442 9.11002 15.6274C9.11002 17.1724 13.1374 17.7643 13.1374 21.3832C13.1374 24.2305 11.3316 26.0639 8.89663 26.0639C5.97472 26.0639 4.48047 24.2454 4.48047 24.2454L5.26283 21.6604C5.26283 21.6604 6.79879 22.9791 8.09485 22.9791C8.94174 22.9791 9.28622 22.3123 9.28622 21.8251C9.28622 19.8098 5.98211 19.7199 5.98211 16.4083C5.98211 13.6211 7.98266 10.9238 12.0209 10.9238C13.5769 10.9238 14.3456 11.3695 14.3456 11.3695Z" fill="#22C59C"/>
</svg>
