<svg width="37" height="38" viewBox="0 0 37 38" fill="none" xmlns="http://www.w3.org/2000/svg">
<g style="mix-blend-mode:luminosity">
<mask id="mask0_5789_1939" style="mask-type:luminance" maskUnits="userSpaceOnUse" x="0" y="0" width="37" height="38">
<path d="M36.8054 0.733398H0.397461V37.1416H36.8054V0.733398Z" fill="white"/>
</mask>
<g mask="url(#mask0_5789_1939)">
<path d="M8.34098 3.63873L18.6015 2.55176L28.862 3.63873L36.8054 14.3242L18.6015 35.5662L0.397461 14.3242L8.34098 3.63873Z" fill="#FDB300"/>
<path d="M7.77097 14.3281L18.6014 35.5701L0.397461 14.3281H7.77097Z" fill="#EA6C00"/>
<path d="M29.4349 14.3281L18.6045 35.5701L36.8086 14.3281H29.4349Z" fill="#EA6C00"/>
<path d="M7.77246 14.3281H29.4335L18.6029 35.5701L7.77246 14.3281Z" fill="#FDAD00"/>
<path d="M18.6029 2.55176L8.34243 3.6387L7.77246 14.3242L18.6029 2.55176Z" fill="#FDD231"/>
<path d="M18.6045 2.55176L28.8651 3.6387L29.4349 14.3242L18.6045 2.55176Z" fill="#FDD231"/>
<path d="M36.8079 14.3222L28.8643 3.63672L29.4343 14.3222H36.8079Z" fill="#FDAD00"/>
<path d="M0.397461 14.3222L8.34098 3.63672L7.77097 14.3222H0.397461Z" fill="#FDAD00"/>
<path d="M18.6029 2.55176L7.77246 14.3242H29.4335L18.6029 2.55176Z" fill="#FEEEB7"/>
</g>
</g>
</svg>
