<svg width="39" height="31" viewBox="0 0 39 31" fill="none" xmlns="http://www.w3.org/2000/svg">
<path d="M29.0403 28.3589C24.65 30.6395 18.6193 30.8706 12.5624 28.5392C7.83694 26.7308 3.79106 23.6157 0.950195 19.596C2.27545 20.536 3.71783 21.3157 5.24577 21.9152C11.5061 24.4925 17.7803 24.3762 22.1845 21.9152C16.371 17.7082 11.1354 12.8249 6.60107 7.37893C5.8198 6.59293 5.12069 5.72937 4.51454 4.8016C9.27625 8.60557 14.3415 12.052 19.6649 15.1109C15.7878 11.3724 12.2219 7.35198 9.00116 3.08723C14.3723 7.98994 20.2767 12.3356 26.6156 16.0517L27.2936 16.4123C27.477 15.9922 27.6354 15.5619 27.7682 15.1232C29.2322 10.3292 27.5648 4.87867 23.9065 0.368164C32.3759 4.96803 37.3902 13.6154 35.3022 20.858C35.3022 21.0507 35.1944 21.2448 35.125 21.4382L35.1927 21.5153C39.3796 26.2192 38.2285 31.1928 37.7002 30.2528C35.4099 26.3232 31.1684 27.5329 29.0412 28.3574L29.0403 28.3589Z" fill="#FEFEFE"/>
</svg>
