<svg width="31" height="31" viewBox="0 0 31 31" fill="none" xmlns="http://www.w3.org/2000/svg">
<path fill-rule="evenodd" clip-rule="evenodd" d="M0.600098 15.6262C0.600098 21.5635 4.05014 26.6945 9.05364 29.1254L1.89855 9.52206C1.06698 11.3868 0.600098 13.4512 0.600098 15.6262ZM25.7256 14.8696C25.7256 13.0152 25.059 11.7318 24.489 10.7333C23.7287 9.49675 23.0153 8.45049 23.0153 7.21485C23.0153 5.83577 24.0606 4.55231 25.5343 4.55231C25.6009 4.55231 25.6637 4.56075 25.7284 4.5645C23.0603 2.11947 19.5043 0.626953 15.5995 0.626953C10.3588 0.626953 5.7491 3.31574 3.06688 7.38735C3.41938 7.3986 3.75126 7.40516 4.03252 7.40516C5.60097 7.40516 8.03007 7.21485 8.03007 7.21485C8.8382 7.16703 8.93383 8.3558 8.12569 8.45049C8.12569 8.45049 7.31287 8.54611 6.40911 8.59393L11.871 24.841L15.1542 14.9962L12.8179 8.59393C12.0098 8.54611 11.2439 8.45049 11.2439 8.45049C10.4357 8.40268 10.5304 7.16703 11.3395 7.21485C11.3395 7.21485 13.8164 7.40516 15.2902 7.40516C16.8586 7.40516 19.2877 7.21485 19.2877 7.21485C20.0968 7.16703 20.1915 8.3558 19.3833 8.45049C19.3833 8.45049 18.5696 8.54611 17.6667 8.59393L23.0874 24.7173L24.5846 19.7184C25.2315 17.6428 25.7256 16.1531 25.7256 14.8696ZM15.863 16.9383L11.362 30.0157C12.7064 30.4113 14.1276 30.627 15.5995 30.627C17.3461 30.627 19.0215 30.3251 20.5805 29.7766C20.5412 29.7119 20.5037 29.6444 20.4737 29.5704L15.863 16.9383ZM28.762 8.43014C28.8267 8.90828 28.8633 9.42016 28.8633 9.97235C28.8633 11.4939 28.5783 13.2049 27.7223 15.3452L23.1407 28.5913C27.6004 25.9916 30.5995 21.1597 30.5995 15.6265C30.5995 13.0183 29.933 10.5667 28.762 8.43014Z" fill="white"/>
</svg>
